<svg width="27" height="24" viewBox="0 0 27 24" fill="none" xmlns="http://www.w3.org/2000/svg">
<g clip-path="url(#clip0_12_67)">
<path d="M19.3828 11.1328C18.0609 11.3578 16.6547 10.9641 15.6328 9.94219L13.8469 8.15625C13.1437 7.45312 12.75 6.50625 12.75 5.5125V4.94531L9.01406 2.90625C8.76562 2.77031 8.61094 2.50312 8.625 2.21719C8.63906 1.93125 8.80781 1.67812 9.07031 1.56094L11.2828 0.576563C12.1453 0.196875 13.0781 0 14.025 0H14.8734C16.5938 0 18.2484 0.65625 19.5 1.83281L21.5906 3.80156C22.725 4.87031 23.1469 6.4125 22.8375 7.83281L23.5781 8.57812L23.9531 8.20312C24.3937 7.7625 25.1063 7.7625 25.5422 8.20312L26.6672 9.32812C27.1078 9.76875 27.1078 10.4812 26.6672 10.9172L22.5422 15.0422C22.1016 15.4828 21.3891 15.4828 20.9531 15.0422L19.8281 13.9172C19.3875 13.4766 19.3875 12.7641 19.8281 12.3281L20.2031 11.9531L19.3828 11.1328ZM1.28437 17.6766L12.2297 8.55938C12.3937 8.78906 12.5813 9.00938 12.7828 9.21563L14.5687 11.0016C14.85 11.2828 15.15 11.5266 15.4688 11.7375L6.32344 22.7156C5.64375 23.5312 4.63594 24 3.57656 24C1.59844 24 0 22.3969 0 20.4234C0 19.3641 0.473438 18.3563 1.28437 17.6766Z" fill="#FDCA0C"/>
</g>
<defs>
<clipPath id="clip0_12_67">
<path d="M0 0H27V24H0V0Z" fill="white"/>
</clipPath>
</defs>
</svg>
