<svg width="27" height="24" viewBox="0 0 27 24" fill="none" xmlns="http://www.w3.org/2000/svg">
<g clip-path="url(#clip0_12_53)">
<path d="M26.9906 11.9766C26.9906 12.8203 26.2875 13.4813 25.4906 13.4813H23.9906L24.0234 20.9906C24.0328 22.6547 22.6875 24.0047 21.0234 24.0047H6.00469C4.35 24.0047 3.00469 22.6594 3.00469 21.0047V13.4813H1.5C0.65625 13.4813 0 12.825 0 11.9766C0 11.5547 0.140625 11.1797 0.46875 10.8516L12.4875 0.375C12.8156 0.046875 13.1906 0 13.5187 0C13.8469 0 14.2219 0.09375 14.5031 0.328125L19.5 4.72031V3C19.5 2.17031 20.1703 1.5 21 1.5H22.5C23.3297 1.5 24 2.17031 24 3V8.67188L26.475 10.8469C26.85 11.175 27.0375 11.55 26.9906 11.9719V11.9766ZM11.625 9C11.0016 9 10.5 9.50156 10.5 10.125V13.875C10.5 14.4984 11.0016 15 11.625 15H15.375C15.9984 15 16.5 14.4984 16.5 13.875V10.125C16.5 9.50156 15.9984 9 15.375 9H11.625Z" fill="#FDCA0C"/>
</g>
<defs>
<clipPath id="clip0_12_53">
<path d="M0 0H27V24H0V0Z" fill="white"/>
</clipPath>
</defs>
</svg>
