<svg width="24" height="24" viewBox="0 0 24 24" fill="none" xmlns="http://www.w3.org/2000/svg">
<g clip-path="url(#clip0_12_74)">
<path d="M10.5 0C11.3297 0 12 0.670312 12 1.5V2.0625L16.5 1.5C17.3297 1.5 18 2.17031 18 3C18 3.82969 17.3297 4.5 16.5 4.5L12 3.9375L10.5469 3.75469L10.5 3.75L10.4531 3.75469L9 3.9375L4.5 4.5C3.67031 4.5 3 3.82969 3 3C3 2.17031 3.67031 1.5 4.5 1.5L9 2.0625V1.5C9 0.670312 9.67031 0 10.5 0ZM0 10.5C0 9.67031 0.670312 9 1.5 9H6L7.05938 7.94062C7.34063 7.65937 7.72031 7.5 8.11875 7.5H9V5.44687L10.5 5.25937L12 5.44687V7.5H12.8766C13.275 7.5 13.6547 7.65937 13.9359 7.94062L15 9H16.5C20.6437 9 24 12.3562 24 16.5C24 17.3297 23.3297 18 22.5 18H19.5C18.6703 18 18 17.3297 18 16.5C18 15.6703 17.3297 15 16.5 15H14.8078C13.8609 16.3594 12.2812 17.25 10.5 17.25C8.71875 17.25 7.13906 16.3594 6.19219 15H1.5C0.670312 15 0 14.3297 0 13.5V10.5ZM20.475 19.8469C20.5641 19.6359 20.7703 19.5 21 19.5C21.2297 19.5 21.4313 19.6359 21.525 19.8469L22.3781 21.8344C22.4625 22.0266 22.5047 22.2375 22.5047 22.4484V22.5C22.5047 23.3297 21.8344 24 21.0047 24C20.175 24 19.5047 23.3297 19.5047 22.5V22.4437C19.5047 22.2328 19.5469 22.0266 19.6312 21.8297L20.4844 19.8422L20.475 19.8469Z" fill="#FDCA0C"/>
</g>
<defs>
<clipPath id="clip0_12_74">
<path d="M0 0H24V24H0V0Z" fill="white"/>
</clipPath>
</defs>
</svg>
