<svg width="151" height="45" viewBox="0 0 151 45" fill="none" xmlns="http://www.w3.org/2000/svg">
<path d="M145.152 37.1547L139.812 30.4514V37.1547H135.836V16.1357H139.812V28.0938L145.095 21.4189H150.265L143.334 29.3152L150.322 37.1547H145.152Z" fill="white"/>
<path d="M128.329 23.8616C128.84 23.0284 129.503 22.3751 130.317 21.9017C131.15 21.4283 132.097 21.1916 133.157 21.1916V25.367H132.106C130.857 25.367 129.91 25.6605 129.266 26.2475C128.641 26.8346 128.329 27.8571 128.329 29.3152V37.1547H124.352V21.4189H128.329V23.8616Z" fill="white"/>
<path d="M113.226 37.4103C111.711 37.4103 110.348 37.0789 109.136 36.4162C107.924 35.7345 106.968 34.7782 106.267 33.5474C105.585 32.3165 105.245 30.8963 105.245 29.2868C105.245 27.6772 105.595 26.257 106.296 25.0262C107.015 23.7953 107.99 22.8485 109.221 22.1858C110.452 21.5041 111.825 21.1632 113.34 21.1632C114.855 21.1632 116.228 21.5041 117.458 22.1858C118.689 22.8485 119.655 23.7953 120.356 25.0262C121.075 26.257 121.435 27.6772 121.435 29.2868C121.435 30.8963 121.066 32.3165 120.327 33.5474C119.608 34.7782 118.623 35.7345 117.373 36.4162C116.142 37.0789 114.76 37.4103 113.226 37.4103ZM113.226 33.945C113.946 33.945 114.618 33.7746 115.243 33.4338C115.887 33.074 116.398 32.5438 116.777 31.8431C117.155 31.1425 117.345 30.2904 117.345 29.2868C117.345 27.7908 116.947 26.6452 116.152 25.8499C115.375 25.0356 114.419 24.6285 113.283 24.6285C112.147 24.6285 111.191 25.0356 110.414 25.8499C109.657 26.6452 109.278 27.7908 109.278 29.2868C109.278 30.7827 109.647 31.9378 110.386 32.7521C111.143 33.5474 112.09 33.945 113.226 33.945Z" fill="white"/>
<path d="M103.642 17.3287L98.1035 37.1547H93.4169L89.6959 23.0379L85.8046 37.1547L81.1463 37.1831L75.8064 17.3287H80.067L83.5607 32.7237L87.594 17.3287H92.0251L95.8312 32.6385L99.3533 17.3287H103.642Z" fill="white"/>
<path d="M67.2246 21.1917C68.4176 21.1917 69.478 21.4568 70.4058 21.987C71.3337 22.4982 72.0533 23.2651 72.5645 24.2877C73.0947 25.2913 73.3599 26.5032 73.3599 27.9234V37.1547H69.3833V28.4631C69.3833 27.2133 69.0709 26.257 68.446 25.5943C67.8211 24.9126 66.969 24.5717 65.8896 24.5717C64.7913 24.5717 63.9203 24.9126 63.2764 25.5943C62.6516 26.257 62.3391 27.2133 62.3391 28.4631V37.085L58.3625 37.085V16.1357H62.3391V23.3788C62.8504 22.6971 63.5321 22.1669 64.3842 21.7881C65.2363 21.3905 66.1831 21.1917 67.2246 21.1917Z" fill="#FDCA0C"/>
<path d="M38.0898 29.23C38.0898 27.6393 38.4023 26.2286 39.0272 24.9978C39.671 23.7669 40.5326 22.8201 41.6119 22.1574C42.7102 21.4946 43.9316 21.1632 45.2761 21.1632C46.4501 21.1632 47.4726 21.3999 48.3437 21.8733C49.2337 22.3467 49.9438 22.9432 50.474 23.6628V21.4189H54.4789V37.1547H50.474V34.854C49.9627 35.5925 49.2526 36.2079 48.3437 36.7002C47.4537 37.1736 46.4217 37.4103 45.2477 37.4103C43.9221 37.4103 42.7102 37.0695 41.6119 36.3878C40.5326 35.7061 39.671 34.7498 39.0272 33.519C38.4023 32.2692 38.0898 30.8395 38.0898 29.23ZM50.474 29.2868C50.474 28.321 50.2846 27.4973 49.9059 26.8156C49.5272 26.115 49.0159 25.5848 48.3721 25.225C47.7283 24.8463 47.0371 24.6569 46.2986 24.6569C45.5601 24.6569 44.8784 24.8368 44.2535 25.1966C43.6286 25.5564 43.1173 26.0866 42.7197 26.7872C42.341 27.4689 42.1516 28.2832 42.1516 29.23C42.1516 30.1768 42.341 31.01 42.7197 31.7295C43.1173 32.4302 43.6286 32.9698 44.2535 33.3485C44.8973 33.7273 45.579 33.9166 46.2986 33.9166C47.0371 33.9166 47.7283 33.7367 48.3721 33.377C49.0159 32.9982 49.5272 32.468 49.9059 31.7863C50.2846 31.0857 50.474 30.2525 50.474 29.2868Z" fill="#FDCA0C"/>
<path d="M23.8384 23.6912C24.3496 22.9716 25.0503 22.3751 25.9403 21.9017C26.8492 21.4094 27.8812 21.1632 29.0363 21.1632C30.3808 21.1632 31.5927 21.4946 32.672 22.1574C33.7703 22.8201 34.6319 23.7669 35.2568 24.9978C35.9006 26.2097 36.2225 27.6204 36.2225 29.23C36.2225 30.8395 35.9006 32.2692 35.2568 33.519C34.6319 34.7498 33.7703 35.7061 32.672 36.3878C31.5927 37.0695 30.3808 37.4103 29.0363 37.4103C27.8812 37.4103 26.8587 37.1736 25.9687 36.7002C25.0976 36.2268 24.3875 35.6303 23.8384 34.9108V44.6533H19.8618V21.4189H23.8384V23.6912ZM32.1607 29.23C32.1607 28.2832 31.9619 27.4689 31.5643 26.7872C31.1855 26.0866 30.6743 25.5564 30.0304 25.1966C29.4056 24.8368 28.7239 24.6569 27.9854 24.6569C27.2658 24.6569 26.5841 24.8463 25.9403 25.225C25.3154 25.5848 24.8041 26.115 24.4065 26.8156C24.0277 27.5163 23.8384 28.34 23.8384 29.2868C23.8384 30.2336 24.0277 31.0573 24.4065 31.7579C24.8041 32.4586 25.3154 32.9982 25.9403 33.377C26.5841 33.7367 27.2658 33.9166 27.9854 33.9166C28.7239 33.9166 29.4056 33.7273 30.0304 33.3485C30.6743 32.9698 31.1855 32.4302 31.5643 31.7295C31.9619 31.0289 32.1607 30.1957 32.1607 29.23Z" fill="#FDCA0C"/>
<path d="M3.97656 17.3287V29.5992C3.97656 30.9437 4.32687 31.9757 5.02751 32.6953C5.72814 33.3959 6.71281 33.7462 7.98152 33.7462C9.26917 33.7462 10.2633 33.3959 10.9639 32.6953C11.6646 31.9757 12.0149 30.9437 12.0149 29.5992V17.3287H16.0198V29.5708C16.0198 31.2561 15.6506 32.6858 14.9121 33.8598C14.1925 35.0149 13.2173 35.886 11.9865 36.473C10.7746 37.06 9.42065 37.3535 7.92471 37.3535C6.4477 37.3535 5.10325 37.06 3.89135 36.473C2.69838 35.886 1.75158 35.0149 1.05095 33.8598C0.350316 32.6858 0 31.2561 0 29.5708V17.3287H3.97656Z" fill="#FDCA0C"/>
<path d="M58.1675 15.8936H62.7085V37.085H58.1675V15.8936Z" fill="#FDCA0C"/>
<g clip-path="url(#clip0_12_127)">
<path d="M58.1675 19.6777L58.1675 5.29785C58.1675 4.04389 59.184 3.02734 60.438 3.02734C61.692 3.02734 62.7085 4.04388 62.7085 5.29785L62.7085 19.6777C62.7085 20.9317 61.692 21.9482 60.438 21.9482C59.184 21.9482 58.1675 20.9317 58.1675 19.6777Z" fill="#FDCA0C"/>
<path d="M58.917 1.34146C59.8083 0.535964 61.1843 0.562973 62.0434 1.42202L71.8823 11.2609C72.7689 12.1476 72.7689 13.5848 71.8823 14.4715C70.9956 15.3582 69.5583 15.3582 68.6716 14.4715L60.4381 6.23799L52.2045 14.4715C51.3178 15.3582 49.8806 15.3582 48.9939 14.4715C48.1072 13.5848 48.1072 12.1476 48.9939 11.2609L58.8327 1.42202L58.917 1.34146Z" fill="#FDCA0C"/>
</g>
<defs>
<clipPath id="clip0_12_127">
<rect width="25.7324" height="19.6777" fill="white" transform="translate(47.5718)"/>
</clipPath>
</defs>
</svg>
